<mxfile host="Electron" modified="2024-07-30T18:40:42.213Z" agent="Mozilla/5.0 (X11; Linux x86_64) AppleWebKit/537.36 (KHTML, like Gecko) draw.io/21.6.5 Chrome/114.0.5735.243 Electron/25.3.1 Safari/537.36" etag="zBV2Yft-veOoMGTWMfuA" version="21.6.5" type="device">
  <diagram name="Page-1" id="lTKXGvPjV29dHkk9vSpu">
    <mxGraphModel dx="576" dy="390" grid="1" gridSize="10" guides="1" tooltips="1" connect="1" arrows="1" fold="1" page="1" pageScale="1" pageWidth="827" pageHeight="1169" math="0" shadow="0">
      <root>
        <mxCell id="0" />
        <mxCell id="1" parent="0" />
        <mxCell id="7nd8d7u_mbpoJ85qQ8lB-1" value="Iterator&lt;br&gt;state" style="ellipse;whiteSpace=wrap;html=1;fillColor=#dae8fc;strokeColor=#6c8ebf;" vertex="1" parent="1">
          <mxGeometry x="360" y="520" width="80" height="80" as="geometry" />
        </mxCell>
        <mxCell id="7nd8d7u_mbpoJ85qQ8lB-2" value="" style="endArrow=classic;html=1;rounded=0;" edge="1" parent="1" target="7nd8d7u_mbpoJ85qQ8lB-1">
          <mxGeometry width="50" height="50" relative="1" as="geometry">
            <mxPoint x="320" y="490" as="sourcePoint" />
            <mxPoint x="320" y="460" as="targetPoint" />
          </mxGeometry>
        </mxCell>
        <mxCell id="7nd8d7u_mbpoJ85qQ8lB-3" value="" style="endArrow=classic;html=1;rounded=0;" edge="1" parent="1" source="7nd8d7u_mbpoJ85qQ8lB-1">
          <mxGeometry width="50" height="50" relative="1" as="geometry">
            <mxPoint x="320" y="490" as="sourcePoint" />
            <mxPoint x="490" y="520" as="targetPoint" />
          </mxGeometry>
        </mxCell>
        <mxCell id="7nd8d7u_mbpoJ85qQ8lB-4" value="start" style="text;html=1;strokeColor=none;fillColor=none;align=center;verticalAlign=middle;whiteSpace=wrap;rounded=0;" vertex="1" parent="1">
          <mxGeometry x="330" y="480" width="60" height="30" as="geometry" />
        </mxCell>
        <mxCell id="7nd8d7u_mbpoJ85qQ8lB-5" value="iter" style="text;html=1;strokeColor=none;fillColor=none;align=center;verticalAlign=middle;whiteSpace=wrap;rounded=0;" vertex="1" parent="1">
          <mxGeometry x="430" y="500" width="60" height="30" as="geometry" />
        </mxCell>
      </root>
    </mxGraphModel>
  </diagram>
</mxfile>
